<svg xmlns="http://www.w3.org/2000/svg" xmlns:xlink="http://www.w3.org/1999/xlink" width="1964.69" height="447.6" viewBox="0 0 1964.69 447.6">
  <defs>
    <rect id="rect-1" width="193.19" height="49.24" x="0" y="384"/>
    <mask id="mask-2" maskContentUnits="userSpaceOnUse" maskUnits="userSpaceOnUse">
      <rect width="1964.69" height="447.6" x="0" y="0" fill="black"/>
      <use fill="white" xlink:href="#rect-1"/>
    </mask>
  </defs>
  <g>
    <g>
      <use fill="none" xlink:href="#rect-1"/>
      <g mask="url(#mask-2)">
        <path fill="rgb(11,49,94)" fill-rule="evenodd" d="M176.87 413.25l-16.45 16.36-16.44-16.36-16.45 16.36-16.43-16.36-14.51 14.43-14.5-14.43-16.45 16.36-16.44-16.36-16.45 16.36-16.44-16.36L0 429.48l1.81 1.83 14.5-14.43 16.44 16.36 16.45-16.36 16.44 16.36 16.45-16.36 14.5 14.44 14.51-14.44 16.43 16.36 16.45-16.36 16.44 16.36 16.45-16.36 14.51 14.43 1.81-1.83-16.32-16.23z"/>
        <path fill="rgb(255,157,0)" fill-rule="evenodd" d="M176.87 384l-16.45 16.36L143.98 384l-16.45 16.36L111.1 384l-13.05 12.98v3.64l13.05-13 16.43 16.37 16.45-16.37 16.44 16.36 16.45-16.36 14.51 14.43 1.81-1.82L176.87 384z"/>
      </g>
    </g>
    <g>
      <g>
        <path fill="rgb(255,157,0)" fill-rule="evenodd" d="M923.54 384.28l15.75-15.75c-2.8 1.6-5.39 3.51-7.74 5.68l-2.33 2.33c-2.17 2.35-4.08 4.94-5.68 7.74z"/>
        <path fill="rgb(255,157,0)" fill-rule="evenodd" d="M918.84 396.8l32.97-32.97c-.91.18-1.81.4-2.7.64l-29.63 29.63c-.24.89-.46 1.79-.64 2.7z"/>
        <path fill="rgb(255,157,0)" fill-rule="evenodd" d="M918 405.18v.27L960.45 363h-.27c-.61 0-1.22.02-1.83.04l-40.31 40.31c-.02.61-.04 1.22-.04 1.83z"/>
        <path fill="rgb(255,157,0)" fill-rule="evenodd" d="M918.66 412.62l48.97-48.97c-.59-.1-1.19-.2-1.78-.28l-47.46 47.46c.07.6.16 1.2.27 1.79z"/>
        <path fill="rgb(255,157,0)" fill-rule="evenodd" d="M920.26 418.83l53.58-53.58c-.52-.18-1.04-.34-1.56-.5l-52.51 52.51c.15.53.32 1.05.49 1.57z"/>
        <path fill="rgb(255,157,0)" fill-rule="evenodd" d="M922.59 424.32l56.75-56.75c-.46-.23-.92-.46-1.39-.67l-56.03 56.03c.21.47.43.94.67 1.39z"/>
        <path fill="rgb(255,157,0)" fill-rule="evenodd" d="M925.52 429.21l58.71-58.71c-.41-.28-.82-.56-1.23-.83l-58.3 58.3c.26.43.53.84.82 1.24z"/>
        <path fill="rgb(255,157,0)" fill-rule="evenodd" d="M928.98 433.57l59.59-59.59c-.36-.33-.73-.65-1.1-.96l-59.46 59.46c.32.36.64.73.97 1.09z"/>
        <path fill="rgb(255,157,0)" fill-rule="evenodd" d="M932.96 437.4l59.45-59.45c-.31-.37-.63-.74-.96-1.1l-59.59 59.59c.36.33.73.65 1.1.96z"/>
        <path fill="rgb(255,157,0)" fill-rule="evenodd" d="M937.46 440.73l58.28-58.28c-.27-.42-.54-.83-.83-1.23l-58.69 58.69c.41.27.82.55 1.24.82z"/>
        <path fill="rgb(255,157,0)" fill-rule="evenodd" d="M942.51 443.49l55.99-55.99c-.22-.47-.44-.93-.67-1.39l-56.71 56.71c.46.23.92.46 1.39.67z"/>
        <path fill="rgb(255,157,0)" fill-rule="evenodd" d="M948.19 445.63l52.45-52.45c-.16-.53-.32-1.05-.49-1.56l-53.53 53.53c.52.16 1.04.33 1.57.48z"/>
        <path fill="rgb(255,157,0)" fill-rule="evenodd" d="M954.63 447l47.38-47.38c-.08-.6-.17-1.19-.27-1.79l-48.89 48.89c.59.11 1.19.2 1.78.28z"/>
        <path fill="rgb(255,157,0)" fill-rule="evenodd" d="M960.19 447.37c.65 0 1.3-.02 1.94-.05l40.2-40.2c.03-.64.05-1.29.05-1.94v-.16l-42.34 42.34c.04.01.1.01.15.01z"/>
        <path fill="rgb(255,157,0)" fill-rule="evenodd" d="M971.42 445.85l29.44-29.44c.25-.89.47-1.8.65-2.71l-32.81 32.81c.92-.19 1.83-.41 2.72-.66z"/>
        <path fill="rgb(255,157,0)" fill-rule="evenodd" d="M996.69 426.34l-15.34 15.34c6.35-3.69 11.65-8.99 15.34-15.34z"/>
      </g>
      <g>
        <path fill="rgb(11,49,94)" fill-rule="evenodd" d="M1797.7259646 157.89638065l33.36460029-33.23576502c-5.92342542 3.37174428-11.42374901 7.40579546-16.40023227 11.98173413l-4.93618785 4.91712707c-4.59367685 4.97733679-8.64336565 10.43635134-12.02818017 16.33690382z"/>
        <path fill="rgb(11,49,94)" fill-rule="evenodd" d="M1787.77299808 184.3083775l69.83194724-69.56229564c-1.93417973.38132822-3.82806405.84293607-5.72194836 1.34468373l-62.7601026 62.53782839c-.50369265 1.8665013-.96708987 3.7731424-1.34989628 5.67978351z"/>
        <path fill="rgb(11,49,94)" fill-rule="evenodd" d="M1786 201.98996505v.56195738L1875.9192096 113h-.56413575c-1.30960085 0-2.599054.04013981-3.86835945.08027963l-85.38597587 85.05626338C1786.0402954 199.42101703 1786 200.70549104 1786 201.98996505z"/>
        <path fill="rgb(11,49,94)" fill-rule="evenodd" d="M1787.39019168 217.68463186l103.70024016-103.29980832c-1.24915774-.22076897-2.51846319-.42146803-3.76762093-.58202728l-100.51690269 100.1287631c.16118164 1.2443342.3626587 2.5087383.58428346 3.7530725z"/>
        <path fill="rgb(11,49,94)" fill-rule="evenodd" d="M1790.7951539 230.79028075l113.47187733-113.03371293c-1.0879761-.38132822-2.1960999-.72251663-3.3042237-1.04363513l-111.2153343 110.78588341c.32236328 1.10384485.66487427 2.2076897 1.04768068 3.29146465z"/>
        <path fill="rgb(11,49,94)" fill-rule="evenodd" d="M1795.71119405 242.37061675L1915.8922573 122.6736949c-.96708986-.48167775-1.95432743-.9633555-2.941565-1.42496335l-118.66998534 118.21174878c.46339722.98342542.92679445 1.94678093 1.43048709 2.91013643z"/>
        <path fill="rgb(11,49,94)" fill-rule="evenodd" d="M1801.91668734 252.68654865l124.33149058-123.83132258c-.86635133-.6020972-1.73270267-1.18412448-2.61920171-1.74608186l-123.46513925 122.98838651c.56413575.88307589 1.14841921 1.74608186 1.75285038 2.58901793z"/>
        <path fill="rgb(11,49,94)" fill-rule="evenodd" d="M1809.25045214 261.8785658l126.2052272-125.7178938c-.76561282-.68237681-1.53122562-1.36475363-2.31698614-2.02706054l-125.92315932 125.4369151c.66487428.78272634 1.34989627 1.54538279 2.03491826 2.30803923z"/>
        <path fill="rgb(11,49,94)" fill-rule="evenodd" d="M1817.69234074 269.96673808l125.90301161-125.4168452c-.66487428-.78272634-1.34989627-1.5654527-2.03491825-2.32810914l-126.2052272 125.71789379c.7656128.70244672 1.55137332 1.36475363 2.33713384 2.02706055z"/>
        <path fill="rgb(11,49,94)" fill-rule="evenodd" d="M1827.20205773 276.99120532l123.42484384-122.9482467c-.56413576-.88307588-1.14841922-1.74608186-1.75285038-2.60908783l-124.29119517 123.81125267c.86635133.58202729 1.73270267 1.16405458 2.6192017 1.74608186z"/>
        <path fill="rgb(11,49,94)" fill-rule="evenodd" d="M1837.90048934 282.81147818l118.56924682-118.11139925c-.46339723-.98342542-.92679445-1.96685083-1.43048709-2.93020634l-120.10047243 119.63671214c.98723757.48167776 1.97447514.96335551 2.9617127 1.40489345z"/>
        <path fill="rgb(11,49,94)" fill-rule="evenodd" d="M1849.92866952 287.32720713l111.09444808-110.66546398c-.32236329-1.10384485-.68502199-2.2076897-1.04768068-3.29146465l-113.3509911 112.9132935c1.0879761.38132821 2.1960999.72251662 3.3042237 1.04363513z"/>
        <path fill="rgb(11,49,94)" fill-rule="evenodd" d="M1863.58881385 290.21727365l100.33557334-99.94813395c-.16118164-1.2644041-.3626587-2.5288082-.58428346-3.7731424l-103.53905852 103.13924906c1.24915774.24083888 2.51846319.42146804 3.78776864.58202729z"/>
        <path fill="rgb(11,49,94)" fill-rule="evenodd" d="M1875.35507385 291c1.39019168 0 2.76023566-.04013981 4.11013192-.10034953l85.1240557-84.7953546c.06044312-1.36475364.10073853-2.72950728.10073853-4.09426092v-.3411884L1875.01256286 291h.342511z"/>
        <path fill="rgb(11,49,94)" fill-rule="evenodd" d="M1899.12936633 287.80888488l62.3571485-62.11636036c.52384034-1.8865712.98723757-3.7932123 1.39019168-5.71992332l-69.48943624 69.22110722c1.93417972-.40139813 3.84821175-.88307588 5.74209606-1.38482354z"/>
        <path fill="rgb(11,49,94)" fill-rule="evenodd" d="M1952.64167212 246.64550682l-32.49824896 32.37275905c13.45866727-7.8071936 24.70108693-18.98613147 32.49824896-32.37275905z"/>
      </g>
    </g>
    <g>
      <path fill="rgb(11,49,94)" fill-rule="evenodd" d="M747.59198917 251.2616148l21.60194858-21.66170501c-3.83512855 2.19756427-7.39631935 4.82679296-10.61834912 7.80920162l-3.19594046 3.20478124c-2.97418132 3.23094271-5.59615697 6.80198466-7.787659 10.64772214z"/>
      <path fill="rgb(11,49,94)" fill-rule="evenodd" d="M741.14792963 268.47586829l45.21277402-45.33784393c-1.25228687.24853405-2.47848443.54939107-3.704682.87640956l-40.63410013 40.74650428c-.32611638 1.2165088-.62614344 2.45917908-.87399189 3.71493009z"/>
      <path fill="rgb(11,49,94)" fill-rule="evenodd" d="M740 280v.36626071L798.20525034 222H797.84c-.83485792 0-1.68276049.02616148-2.50457375.05232296l-55.28324763 55.42309427C740.02608931 278.31258457 740 279.14975192 740 280z"/>
      <path fill="rgb(11,49,94)" fill-rule="evenodd" d="M740.9000812 290.21605774l67.14083896-67.32656744c-.8087686-.14388813-1.63058187-.27469553-2.43935047-.37934145l-65.0797835 65.25981055c.10435725.8240866.2348038 1.63509247.378295 2.44609834z"/>
      <path fill="rgb(11,49,94)" fill-rule="evenodd" d="M743.09158322 298.75778078l73.46749662-73.6707262c-.70441137-.24853406-1.4218674-.47090663-2.13932341-.68019847l-72.00649527 72.20568336c.22175914.71944068.44351827 1.43888137.67832206 2.14524131z"/>
      <path fill="rgb(11,49,94)" fill-rule="evenodd" d="M746.28752368 306.31844835l77.81136671-78.02661254c-.62614343-.32701849-1.26533153-.6278755-1.90451962-.92873252l-76.83301759 77.04555706c.30002706.64095625.60005413 1.2819125.9261705 1.909788z"/>
      <path fill="rgb(11,49,94)" fill-rule="evenodd" d="M750.3052774 313.04194858l80.49856563-80.72124493c-.56092016-.39242219-1.12184032-.77176364-1.69580514-1.13802435l-79.93764547 80.15877311c.36525034.57555255.74354533 1.13802436 1.13488498 1.70049617z"/>
      <path fill="rgb(11,49,94)" fill-rule="evenodd" d="M755.0535318 319.01984664l81.71171854-81.93775372c-.49569689-.44474515-.99139378-.8894903-1.50013532-1.32115472l-81.52909337 81.75462337c.43047361.51014885.86094723 1.00721696 1.31751015 1.50428507z"/>
      <path fill="rgb(11,49,94)" fill-rule="evenodd" d="M760.50619756 324.3044655l81.51604872-81.74154263c-.43047361-.51014885-.87399188-1.0202977-1.31751015-1.51736581l-81.71171854 81.93775372c.50874154.44474515 1.00443843.87640956 1.51317997 1.32115471z"/>
      <path fill="rgb(11,49,94)" fill-rule="evenodd" d="M766.67631935 328.86964366l79.91155616-80.13261163c-.36525034-.57555255-.74354533-1.13802436-1.13488498-1.70049617L764.9805142 327.7316193c.56092016.39242219 1.12184032.77176364 1.69580514 1.13802435z"/>
      <path fill="rgb(11,49,94)" fill-rule="evenodd" d="M773.60303112 332.67613893l76.76779432-76.98015336c-.30002706-.64095625-.60005413-1.2819125-.9261705-1.909788L771.6985115 331.7474064c.62614344.31393775 1.26533153.6278755 1.90451962.92873252z"/>
      <path fill="rgb(11,49,94)" fill-rule="evenodd" d="M781.39069012 335.61930537l71.92822734-72.12719892c-.20871448-.71944069-.44351827-1.43888137-.67832206-2.14524132l-73.40227334 73.59224177c.71745602.23545332 1.42186739.4578259 2.15236806.68019847z"/>
      <path fill="rgb(11,49,94)" fill-rule="evenodd" d="M790.22192152 337.50293189l64.9623816-65.1420839c-.10435725-.8240866-.2348038-1.6481732-.378295-2.45917907l-67.03648173 67.22192152c.82181326.14388813 1.63058186.2616148 2.45239513.37934145z"/>
      <path fill="rgb(11,49,94)" fill-rule="evenodd" d="M797.84 338c.9000812 0 1.78711773-.02616148 2.6611096-.0654037l55.11366713-55.2661254C855.65391069 281.7789806 855.68 280.8894903 855.68 280v-.22237258L797.61824087 338H797.84z"/>
      <path fill="rgb(11,49,94)" fill-rule="evenodd" d="M813.24573748 335.92016238l40.37320704-40.48488949c.33916103-1.22958953.6391881-2.4722598.90008119-3.72801082l-44.99101488 45.11547135c1.25228687-.2616148 2.49152909-.5624718 3.71772665-.90257104z"/>
      <path fill="rgb(11,49,94)" fill-rule="evenodd" d="M847.892341 309.09156518l-21.04102842 21.0992332c8.7138295-5.07532702 15.9797023-12.36129906 21.04102842-21.0992332z"/>
    </g>
    <g>
      <path fill="rgb(255,157,0)" fill-rule="evenodd" d="M360.48999023 38.92999268V0h38.92999268v38.92999268h-38.92999268zm5.42001343-5.41999817H394V5.41999817h-28.08999634V33.5099945z"/>
      <g>
        <path fill="rgb(255,194,0)" fill-rule="evenodd" d="M260.02 42.02L260 61.16l16.58-9.56-16.56-9.58z"/>
        <path fill="rgb(11,49,94)" fill-rule="evenodd" d="M232.99998474 42.44000244L233.02998352 2l35.0099945 20.25-35.03999328 20.19000244zm24.06999207-20.19999695L238.49996948 11.5l-.0099945 21.44999695 18.58000183-10.70999146z"/>
        <path fill="rgb(11,49,94)" fill-rule="evenodd" d="M591.03997803 383.75L544 383.71002197 567.5499878 343l23.48999023 40.75zm-23.5-28l-12.48999024 21.59002686L580 377.35998536 567.53997803 355.75z"/>
      </g>
    </g>
  </g>
</svg>
